<svg width="14" height="14" viewBox="0 0 14 14" fill="none" xmlns="http://www.w3.org/2000/svg">
<path d="M6.09091 3.94087C6.50512 3.94087 6.84091 3.60508 6.84091 3.19087C6.84091 2.77666 6.50512 2.44087 6.09091 2.44087V3.94087ZM1.42603 3.61867L1.95745 4.14791L1.95746 4.14789L1.42603 3.61867ZM1.42603 12.2568L1.95748 11.7276L1.95747 11.7276L1.42603 12.2568ZM11.2045 7.57261C11.2045 7.1584 10.8688 6.82261 10.4545 6.82261C10.0403 6.82261 9.70455 7.1584 9.70455 7.57261H11.2045ZM4.83221 7.77367C4.53992 8.06717 4.54091 8.54205 4.83441 8.83433C5.1279 9.12662 5.60278 9.12564 5.89506 8.83214L4.83221 7.77367ZM13.1678 1.52923C13.4601 1.23573 13.4591 0.760859 13.1656 0.468573C12.8721 0.176287 12.3972 0.17727 12.1049 0.470769L13.1678 1.52923ZM12.6364 1.75C13.0506 1.75 13.3864 1.41421 13.3864 1C13.3864 0.585786 13.0506 0.25 12.6364 0.25V1.75ZM9 0.25C8.58579 0.25 8.25 0.585786 8.25 1C8.25 1.41421 8.58579 1.75 9 1.75V0.25ZM13.3864 1C13.3864 0.585786 13.0506 0.25 12.6364 0.25C12.2221 0.25 11.8864 0.585786 11.8864 1H13.3864ZM11.8864 4.65145C11.8864 5.06567 12.2221 5.40145 12.6364 5.40145C13.0506 5.40145 13.3864 5.06567 13.3864 4.65145H11.8864ZM6.09091 2.44087H2.45455V3.94087H6.09091V2.44087ZM2.45455 2.44087C1.86886 2.44087 1.30779 2.67452 0.894595 3.08944L1.95746 4.14789C2.08982 4.01498 2.26869 3.94087 2.45455 3.94087V2.44087ZM0.894609 3.08943C0.481508 3.50423 0.25 4.06618 0.25 4.65145H1.75C1.75 4.46199 1.82498 4.28092 1.95745 4.14791L0.894609 3.08943ZM0.25 4.65145V11.2241H1.75V4.65145H0.25ZM0.25 11.2241C0.25 11.8093 0.481518 12.3713 0.894588 12.7861L1.95747 11.7276C1.82497 11.5946 1.75 11.4135 1.75 11.2241H0.25ZM0.894581 12.7861C1.30779 13.201 1.86887 13.4346 2.45455 13.4346V11.9346C2.26868 11.9346 2.08983 11.8605 1.95748 11.7276L0.894581 12.7861ZM2.45455 13.4346H9V11.9346H2.45455V13.4346ZM9 13.4346C9.58567 13.4346 10.1467 13.201 10.5599 12.7861L9.49708 11.7276C9.36469 11.8606 9.18583 11.9346 9 11.9346V13.4346ZM10.5599 12.7861C10.973 12.3713 11.2045 11.8093 11.2045 11.2241H9.70455C9.70455 11.4135 9.62958 11.5946 9.49708 11.7276L10.5599 12.7861ZM11.2045 11.2241V7.57261H9.70455V11.2241H11.2045ZM5.89506 8.83214L13.1678 1.52923L12.1049 0.470769L4.83221 7.77367L5.89506 8.83214ZM12.6364 0.25H9V1.75H12.6364V0.25ZM11.8864 1V4.65145H13.3864V1H11.8864Z" fill="#757575"/>
</svg>
